<svg width="598" height="178" viewBox="0 0 598 178" fill="none" xmlns="http://www.w3.org/2000/svg">
<path d="M42.8864 42.1818H58.3636L79.0909 92.7727H79.9091L100.636 42.1818H116.114V112H103.977V64.0341H103.33L84.0341 111.795H74.9659L55.6705 63.9318H55.0227V112H42.8864V42.1818ZM152.523 113.023C147.273 113.023 142.739 111.932 138.92 109.75C135.125 107.545 132.205 104.432 130.159 100.409C128.114 96.3636 127.091 91.6023 127.091 86.125C127.091 80.7386 128.114 76.0114 130.159 71.9432C132.227 67.8523 135.114 64.6705 138.818 62.3977C142.523 60.1023 146.875 58.9545 151.875 58.9545C155.102 58.9545 158.148 59.4773 161.011 60.5227C163.898 61.5455 166.443 63.1364 168.648 65.2955C170.875 67.4545 172.625 70.2045 173.898 73.5455C175.17 76.8636 175.807 80.8182 175.807 85.4091V89.1932H132.886V80.875H163.977C163.955 78.5114 163.443 76.4091 162.443 74.5682C161.443 72.7045 160.045 71.2386 158.25 70.1705C156.477 69.1023 154.409 68.5682 152.045 68.5682C149.523 68.5682 147.307 69.1818 145.398 70.4091C143.489 71.6136 142 73.2045 140.932 75.1818C139.886 77.1364 139.352 79.2841 139.33 81.625V88.8864C139.33 91.9318 139.886 94.5455 141 96.7273C142.114 98.8864 143.67 100.545 145.67 101.705C147.67 102.841 150.011 103.409 152.693 103.409C154.489 103.409 156.114 103.159 157.568 102.659C159.023 102.136 160.284 101.375 161.352 100.375C162.42 99.375 163.227 98.1364 163.773 96.6591L175.295 97.9545C174.568 101 173.182 103.659 171.136 105.932C169.114 108.182 166.523 109.932 163.364 111.182C160.205 112.409 156.591 113.023 152.523 113.023ZM198.588 81.3182V112H186.247V59.6364H198.043V68.5341H198.656C199.861 65.6023 201.781 63.2727 204.418 61.5455C207.077 59.8182 210.361 58.9545 214.27 58.9545C217.884 58.9545 221.031 59.7273 223.713 61.2727C226.418 62.8182 228.509 65.0568 229.986 67.9886C231.486 70.9205 232.224 74.4773 232.202 78.6591V112H219.861V80.5682C219.861 77.0682 218.952 74.3295 217.134 72.3523C215.338 70.375 212.849 69.3864 209.668 69.3864C207.509 69.3864 205.588 69.8636 203.906 70.8182C202.247 71.75 200.94 73.1023 199.986 74.875C199.054 76.6477 198.588 78.7955 198.588 81.3182ZM270.895 59.6364V69.1818H240.793V59.6364H270.895ZM248.224 47.0909H260.565V96.25C260.565 97.9091 260.815 99.1818 261.315 100.068C261.838 100.932 262.52 101.523 263.361 101.841C264.202 102.159 265.134 102.318 266.156 102.318C266.929 102.318 267.634 102.261 268.27 102.148C268.929 102.034 269.429 101.932 269.77 101.841L271.849 111.489C271.19 111.716 270.247 111.966 269.02 112.239C267.815 112.511 266.338 112.67 264.588 112.716C261.497 112.807 258.713 112.341 256.236 111.318C253.759 110.273 251.793 108.659 250.338 106.477C248.906 104.295 248.202 101.568 248.224 98.2955V47.0909ZM303.494 113.023C298.381 113.023 293.949 111.898 290.199 109.648C286.449 107.398 283.54 104.25 281.472 100.205C279.426 96.1591 278.403 91.4318 278.403 86.0227C278.403 80.6136 279.426 75.875 281.472 71.8068C283.54 67.7386 286.449 64.5795 290.199 62.3295C293.949 60.0795 298.381 58.9545 303.494 58.9545C308.608 58.9545 313.04 60.0795 316.79 62.3295C320.54 64.5795 323.438 67.7386 325.483 71.8068C327.551 75.875 328.585 80.6136 328.585 86.0227C328.585 91.4318 327.551 96.1591 325.483 100.205C323.438 104.25 320.54 107.398 316.79 109.648C313.04 111.898 308.608 113.023 303.494 113.023ZM303.562 103.136C306.335 103.136 308.653 102.375 310.517 100.852C312.381 99.3068 313.767 97.2386 314.676 94.6477C315.608 92.0568 316.074 89.1705 316.074 85.9886C316.074 82.7841 315.608 79.8864 314.676 77.2955C313.767 74.6818 312.381 72.6023 310.517 71.0568C308.653 69.5114 306.335 68.7386 303.562 68.7386C300.722 68.7386 298.358 69.5114 296.472 71.0568C294.608 72.6023 293.21 74.6818 292.278 77.2955C291.369 79.8864 290.915 82.7841 290.915 85.9886C290.915 89.1705 291.369 92.0568 292.278 94.6477C293.21 97.2386 294.608 99.3068 296.472 100.852C298.358 102.375 300.722 103.136 303.562 103.136ZM339.06 112V59.6364H351.026V68.3636H351.571C352.526 65.3409 354.162 63.0114 356.48 61.375C358.821 59.7159 361.491 58.8864 364.491 58.8864C365.173 58.8864 365.935 58.9205 366.776 58.9886C367.639 59.0341 368.355 59.1136 368.923 59.2273V70.5795C368.401 70.3977 367.571 70.2386 366.435 70.1023C365.321 69.9432 364.241 69.8636 363.196 69.8636C360.946 69.8636 358.923 70.3523 357.128 71.3295C355.355 72.2841 353.957 73.6136 352.935 75.3182C351.912 77.0227 351.401 78.9886 351.401 81.2159V112H339.06Z" fill="white"/>
<path d="M377.668 112V42.1818H390.315V71.7386H422.668V42.1818H435.349V112H422.668V82.3409H390.315V112H377.668ZM481.935 89.9773V59.6364H494.276V112H482.31V102.693H481.764C480.582 105.625 478.639 108.023 475.935 109.886C473.253 111.75 469.946 112.682 466.014 112.682C462.582 112.682 459.548 111.92 456.912 110.398C454.298 108.852 452.253 106.614 450.776 103.682C449.298 100.727 448.56 97.1591 448.56 92.9773V59.6364H460.901V91.0682C460.901 94.3864 461.81 97.0227 463.628 98.9773C465.446 100.932 467.832 101.909 470.787 101.909C472.605 101.909 474.366 101.466 476.071 100.58C477.776 99.6932 479.173 98.375 480.264 96.625C481.378 94.8523 481.935 92.6364 481.935 89.9773ZM507.511 112V42.1818H519.852V68.2955H520.364C521 67.0227 521.898 65.6705 523.057 64.2386C524.216 62.7841 525.784 61.5455 527.761 60.5227C529.739 59.4773 532.261 58.9545 535.33 58.9545C539.375 58.9545 543.023 59.9886 546.273 62.0568C549.545 64.1023 552.136 67.1364 554.045 71.1591C555.977 75.1591 556.943 80.0682 556.943 85.8864C556.943 91.6364 556 96.5227 554.114 100.545C552.227 104.568 549.659 107.636 546.409 109.75C543.159 111.864 539.477 112.92 535.364 112.92C532.364 112.92 529.875 112.42 527.898 111.42C525.92 110.42 524.33 109.216 523.125 107.807C521.943 106.375 521.023 105.023 520.364 103.75H519.648V112H507.511ZM519.614 85.8182C519.614 89.2045 520.091 92.1705 521.045 94.7159C522.023 97.2614 523.42 99.25 525.239 100.682C527.08 102.091 529.307 102.795 531.92 102.795C534.648 102.795 536.932 102.068 538.773 100.614C540.614 99.1364 542 97.125 542.932 94.5795C543.886 92.0114 544.364 89.0909 544.364 85.8182C544.364 82.5682 543.898 79.6818 542.966 77.1591C542.034 74.6364 540.648 72.6591 538.807 71.2273C536.966 69.7955 534.67 69.0795 531.92 69.0795C529.284 69.0795 527.045 69.7727 525.205 71.1591C523.364 72.5455 521.966 74.4886 521.011 76.9886C520.08 79.4886 519.614 82.4318 519.614 85.8182Z" fill="#018F7D"/>
<path d="M145.943 134.125C145.837 133.133 145.39 132.36 144.602 131.807C143.822 131.254 142.807 130.977 141.557 130.977C140.678 130.977 139.924 131.11 139.295 131.375C138.667 131.64 138.186 132 137.852 132.455C137.519 132.909 137.348 133.428 137.341 134.011C137.341 134.496 137.451 134.917 137.67 135.273C137.898 135.629 138.205 135.932 138.591 136.182C138.977 136.424 139.405 136.629 139.875 136.795C140.345 136.962 140.818 137.102 141.295 137.216L143.477 137.761C144.356 137.966 145.201 138.242 146.011 138.591C146.83 138.939 147.561 139.379 148.205 139.909C148.856 140.439 149.371 141.08 149.75 141.83C150.129 142.58 150.318 143.458 150.318 144.466C150.318 145.83 149.97 147.03 149.273 148.068C148.576 149.098 147.568 149.905 146.25 150.489C144.939 151.064 143.352 151.352 141.489 151.352C139.678 151.352 138.106 151.072 136.773 150.511C135.447 149.951 134.409 149.133 133.659 148.057C132.917 146.981 132.515 145.67 132.455 144.125H136.602C136.663 144.936 136.913 145.61 137.352 146.148C137.792 146.686 138.364 147.087 139.068 147.352C139.78 147.617 140.576 147.75 141.455 147.75C142.371 147.75 143.174 147.614 143.864 147.341C144.561 147.061 145.106 146.674 145.5 146.182C145.894 145.682 146.095 145.098 146.102 144.432C146.095 143.826 145.917 143.326 145.568 142.932C145.22 142.53 144.731 142.197 144.102 141.932C143.481 141.659 142.754 141.417 141.92 141.205L139.273 140.523C137.356 140.03 135.841 139.284 134.727 138.284C133.621 137.277 133.068 135.939 133.068 134.273C133.068 132.902 133.439 131.701 134.182 130.67C134.932 129.64 135.951 128.841 137.239 128.273C138.527 127.697 139.985 127.409 141.614 127.409C143.265 127.409 144.712 127.697 145.955 128.273C147.205 128.841 148.186 129.633 148.898 130.648C149.61 131.655 149.977 132.814 150 134.125H145.943ZM154.077 151V127.727H169.213V131.261H158.293V137.58H168.429V141.114H158.293V147.466H169.304V151H154.077ZM192.639 127.727V151H188.889L177.923 135.148H177.73V151H173.514V127.727H177.287L188.241 143.591H188.446V127.727H192.639ZM201.449 127.727V151H197.233V127.727H201.449ZM226.81 139.364C226.81 141.871 226.34 144.019 225.401 145.807C224.469 147.587 223.196 148.951 221.582 149.898C219.976 150.845 218.154 151.318 216.116 151.318C214.079 151.318 212.253 150.845 210.639 149.898C209.033 148.943 207.76 147.576 206.821 145.795C205.889 144.008 205.423 141.864 205.423 139.364C205.423 136.856 205.889 134.712 206.821 132.932C207.76 131.144 209.033 129.777 210.639 128.83C212.253 127.883 214.079 127.409 216.116 127.409C218.154 127.409 219.976 127.883 221.582 128.83C223.196 129.777 224.469 131.144 225.401 132.932C226.34 134.712 226.81 136.856 226.81 139.364ZM222.571 139.364C222.571 137.598 222.295 136.11 221.741 134.898C221.196 133.678 220.438 132.758 219.469 132.136C218.499 131.508 217.382 131.193 216.116 131.193C214.851 131.193 213.734 131.508 212.764 132.136C211.795 132.758 211.033 133.678 210.48 134.898C209.935 136.11 209.662 137.598 209.662 139.364C209.662 141.129 209.935 142.621 210.48 143.841C211.033 145.053 211.795 145.973 212.764 146.602C213.734 147.223 214.851 147.534 216.116 147.534C217.382 147.534 218.499 147.223 219.469 146.602C220.438 145.973 221.196 145.053 221.741 143.841C222.295 142.621 222.571 141.129 222.571 139.364ZM230.795 151V127.727H239.523C241.311 127.727 242.811 128.038 244.023 128.659C245.242 129.28 246.163 130.152 246.784 131.273C247.413 132.386 247.727 133.686 247.727 135.17C247.727 136.663 247.409 137.958 246.773 139.057C246.144 140.148 245.216 140.992 243.989 141.591C242.761 142.182 241.254 142.477 239.466 142.477H233.25V138.977H238.898C239.943 138.977 240.799 138.833 241.466 138.545C242.133 138.25 242.625 137.822 242.943 137.261C243.269 136.693 243.432 135.996 243.432 135.17C243.432 134.345 243.269 133.64 242.943 133.057C242.617 132.466 242.121 132.019 241.455 131.716C240.788 131.405 239.928 131.25 238.875 131.25H235.011V151H230.795ZM242.818 140.455L248.58 151H243.875L238.216 140.455H242.818ZM267.432 151H259.545V127.727H267.591C269.902 127.727 271.886 128.193 273.545 129.125C275.212 130.049 276.492 131.379 277.386 133.114C278.28 134.848 278.727 136.924 278.727 139.341C278.727 141.765 278.277 143.848 277.375 145.591C276.481 147.333 275.189 148.67 273.5 149.602C271.818 150.534 269.795 151 267.432 151ZM263.761 147.352H267.227C268.848 147.352 270.201 147.057 271.284 146.466C272.367 145.867 273.182 144.977 273.727 143.795C274.273 142.606 274.545 141.121 274.545 139.341C274.545 137.561 274.273 136.083 273.727 134.909C273.182 133.727 272.375 132.845 271.307 132.261C270.246 131.67 268.928 131.375 267.352 131.375H263.761V147.352ZM282.733 151V127.727H297.869V131.261H286.949V137.58H297.085V141.114H286.949V147.466H297.96V151H282.733ZM305.284 127.727L311.341 146.045H311.58L317.625 127.727H322.261L314.057 151H308.852L300.659 127.727H305.284ZM325.327 151V127.727H340.463V131.261H329.543V137.58H339.679V141.114H329.543V147.466H340.554V151H325.327ZM344.764 151V127.727H348.98V147.466H359.23V151H344.764ZM382.778 139.364C382.778 141.871 382.309 144.019 381.369 145.807C380.438 147.587 379.165 148.951 377.551 149.898C375.945 150.845 374.123 151.318 372.085 151.318C370.047 151.318 368.222 150.845 366.608 149.898C365.002 148.943 363.729 147.576 362.79 145.795C361.858 144.008 361.392 141.864 361.392 139.364C361.392 136.856 361.858 134.712 362.79 132.932C363.729 131.144 365.002 129.777 366.608 128.83C368.222 127.883 370.047 127.409 372.085 127.409C374.123 127.409 375.945 127.883 377.551 128.83C379.165 129.777 380.438 131.144 381.369 132.932C382.309 134.712 382.778 136.856 382.778 139.364ZM378.54 139.364C378.54 137.598 378.263 136.11 377.71 134.898C377.165 133.678 376.407 132.758 375.438 132.136C374.468 131.508 373.35 131.193 372.085 131.193C370.82 131.193 369.703 131.508 368.733 132.136C367.763 132.758 367.002 133.678 366.449 134.898C365.903 136.11 365.631 137.598 365.631 139.364C365.631 141.129 365.903 142.621 366.449 143.841C367.002 145.053 367.763 145.973 368.733 146.602C369.703 147.223 370.82 147.534 372.085 147.534C373.35 147.534 374.468 147.223 375.438 146.602C376.407 145.973 377.165 145.053 377.71 143.841C378.263 142.621 378.54 141.129 378.54 139.364ZM386.764 151V127.727H395.491C397.279 127.727 398.779 128.061 399.991 128.727C401.211 129.394 402.132 130.311 402.753 131.477C403.382 132.636 403.696 133.955 403.696 135.432C403.696 136.924 403.382 138.25 402.753 139.409C402.124 140.568 401.196 141.481 399.969 142.148C398.741 142.807 397.23 143.136 395.435 143.136H389.651V139.67H394.866C395.912 139.67 396.768 139.489 397.435 139.125C398.101 138.761 398.594 138.261 398.912 137.625C399.238 136.989 399.401 136.258 399.401 135.432C399.401 134.606 399.238 133.879 398.912 133.25C398.594 132.621 398.098 132.133 397.423 131.784C396.757 131.428 395.897 131.25 394.844 131.25H390.98V151H386.764ZM407.358 151V127.727H422.494V131.261H411.574V137.58H421.71V141.114H411.574V147.466H422.585V151H407.358ZM426.795 151V127.727H435.523C437.311 127.727 438.811 128.038 440.023 128.659C441.242 129.28 442.163 130.152 442.784 131.273C443.413 132.386 443.727 133.686 443.727 135.17C443.727 136.663 443.409 137.958 442.773 139.057C442.144 140.148 441.216 140.992 439.989 141.591C438.761 142.182 437.254 142.477 435.466 142.477H429.25V138.977H434.898C435.943 138.977 436.799 138.833 437.466 138.545C438.133 138.25 438.625 137.822 438.943 137.261C439.269 136.693 439.432 135.996 439.432 135.17C439.432 134.345 439.269 133.64 438.943 133.057C438.617 132.466 438.121 132.019 437.455 131.716C436.788 131.405 435.928 131.25 434.875 131.25H431.011V151H426.795ZM438.818 140.455L444.58 151H439.875L434.216 140.455H438.818ZM460.256 134.125C460.15 133.133 459.703 132.36 458.915 131.807C458.134 131.254 457.119 130.977 455.869 130.977C454.991 130.977 454.237 131.11 453.608 131.375C452.979 131.64 452.498 132 452.165 132.455C451.831 132.909 451.661 133.428 451.653 134.011C451.653 134.496 451.763 134.917 451.983 135.273C452.21 135.629 452.517 135.932 452.903 136.182C453.29 136.424 453.718 136.629 454.188 136.795C454.657 136.962 455.131 137.102 455.608 137.216L457.79 137.761C458.669 137.966 459.513 138.242 460.324 138.591C461.142 138.939 461.873 139.379 462.517 139.909C463.169 140.439 463.684 141.08 464.062 141.83C464.441 142.58 464.631 143.458 464.631 144.466C464.631 145.83 464.282 147.03 463.585 148.068C462.888 149.098 461.881 149.905 460.562 150.489C459.252 151.064 457.665 151.352 455.801 151.352C453.991 151.352 452.419 151.072 451.085 150.511C449.759 149.951 448.722 149.133 447.972 148.057C447.229 146.981 446.828 145.67 446.767 144.125H450.915C450.975 144.936 451.225 145.61 451.665 146.148C452.104 146.686 452.676 147.087 453.381 147.352C454.093 147.617 454.888 147.75 455.767 147.75C456.684 147.75 457.487 147.614 458.176 147.341C458.873 147.061 459.419 146.674 459.812 146.182C460.206 145.682 460.407 145.098 460.415 144.432C460.407 143.826 460.229 143.326 459.881 142.932C459.532 142.53 459.044 142.197 458.415 141.932C457.794 141.659 457.066 141.417 456.233 141.205L453.585 140.523C451.669 140.03 450.153 139.284 449.04 138.284C447.934 137.277 447.381 135.939 447.381 134.273C447.381 132.902 447.752 131.701 448.494 130.67C449.244 129.64 450.263 128.841 451.551 128.273C452.839 127.697 454.297 127.409 455.926 127.409C457.578 127.409 459.025 127.697 460.267 128.273C461.517 128.841 462.498 129.633 463.21 130.648C463.922 131.655 464.29 132.814 464.312 134.125H460.256Z" fill="white"/>
<rect x="36" y="135" width="79" height="8" fill="white"/>
<rect x="483" y="135" width="79" height="8" fill="white"/>
</svg>
